<svg width="16.000000" height="16.000000" viewBox="0 0 16 16" fill="none" xmlns="http://www.w3.org/2000/svg" xmlns:xlink="http://www.w3.org/1999/xlink">
	<defs>
		<clipPath id="clip25_197">
			<rect id="heart 1" rx="0.000000" width="16.000000" height="16.000000" fill-opacity="0"/>
		</clipPath>
	</defs>
	<rect id="heart 1" rx="0.000000" width="16.000000" height="16.000000"/>
	<g clip-path="url(#clip25_197)">
		<path id="Vector" d="M8 15.1C7.77 15.1 7.55 15.02 7.38 14.87C6.73 14.31 6.11 13.78 5.56 13.31L5.55 13.31C3.94 11.93 2.55 10.75 1.58 9.58C0.5 8.27 0 7.03 0 5.68C0 4.36 0.45 3.15 1.26 2.26C2.09 1.36 3.23 0.87 4.46 0.87C5.39 0.87 6.23 1.16 6.98 1.74C7.35 2.03 7.69 2.38 8 2.8C8.3 2.38 8.64 2.03 9.01 1.74C9.76 1.16 10.6 0.87 11.53 0.87C12.76 0.87 13.9 1.36 14.73 2.26C15.54 3.15 16 4.36 16 5.68C16 7.03 15.49 8.27 14.41 9.58C13.44 10.75 12.05 11.93 10.44 13.3C9.89 13.77 9.26 14.31 8.61 14.87C8.44 15.02 8.22 15.1 8 15.1ZM4.46 1.81C3.49 1.81 2.6 2.19 1.95 2.9C1.29 3.61 0.93 4.6 0.93 5.68C0.93 6.82 1.36 7.83 2.3 8.98C3.22 10.08 4.58 11.25 6.16 12.59L6.17 12.59C6.72 13.06 7.34 13.6 7.99 14.17C8.65 13.6 9.28 13.06 9.83 12.59C11.41 11.25 12.77 10.08 13.69 8.98C14.63 7.83 15.06 6.82 15.06 5.68C15.06 4.6 14.7 3.61 14.04 2.9C13.39 2.19 12.5 1.81 11.53 1.81C10.81 1.81 10.16 2.03 9.58 2.48C9.07 2.88 8.71 3.38 8.5 3.73C8.4 3.91 8.21 4.02 8 4.02C7.78 4.02 7.59 3.91 7.49 3.73C7.28 3.38 6.92 2.88 6.41 2.48C5.83 2.03 5.18 1.81 4.46 1.81Z" fill="#000000" fill-opacity="0.750000" fill-rule="nonzero"/>
	</g>
</svg>
